<svg xmlns="http://www.w3.org/2000/svg" viewBox="3218 -4951 46.178 50.218">
    <defs>
        <style>
            .cls-1,.cls-2{fill:#ffe100;fill-rule:evenodd}.cls-2{fill:#fff}
        </style>
    </defs>
    <g id="Group_448" data-name="Group 448" transform="translate(155 620)">
        <g id="Alerts" transform="translate(3063 -5571.989)">
            <path id="Shape" d="M14.73 45.665a31.1 31.1 0 0 1 6.756 3.989c2.214 2.106 2.325 2.106 4.429-.221a19.3 19.3 0 0 1 5.985-3.879c11.847-4.985 17.6-19.388 12.289-30.911-5.206-11.3-17.5-16.4-29.348-12.186-19.713 6.98-19.826 35.121-.111 43.208z" class="cls-1"/>
        </g>
        <path id="Shape-2" d="M57.911 93.92l-2.973 3.02-8.918 9.054a2.94 2.94 0 0 1-4.2 0l-5.95-6.038a3.027 3.027 0 0 1 2.1-5.151 2.937 2.937 0 0 1 2.1.885l3.844 3.9 6.815-6.922 2.973-3.018a2.939 2.939 0 0 1 2.1-.883 3 3 0 0 1 2.973 3.016 3.028 3.028 0 0 1-.87 2.135z" class="cls-2" data-name="Shape" transform="translate(3040 -5644.769)"/>
    </g>
</svg>
