<svg xmlns="http://www.w3.org/2000/svg" viewBox="3310 -4448 25.289 25.289">
    <defs>
        <style>
            .cls-1{fill:#fff;fill-rule:evenodd}
        </style>
    </defs>
    <g id="Instagram" transform="translate(3310 -4448)">
        <path id="Path_3" d="M12.645 2.248a38.771 38.771 0 0 1 5.058.14 6.516 6.516 0 0 1 2.388.421A4.934 4.934 0 0 1 22.479 5.2a6.516 6.516 0 0 1 .421 2.387c0 1.264.14 1.686.14 5.058a38.771 38.771 0 0 1-.14 5.055 6.516 6.516 0 0 1-.421 2.388 4.934 4.934 0 0 1-2.388 2.388 6.516 6.516 0 0 1-2.391.424c-1.264 0-1.686.14-5.058.14a38.771 38.771 0 0 1-5.058-.14 6.516 6.516 0 0 1-2.384-.421 4.934 4.934 0 0 1-2.39-2.388 6.516 6.516 0 0 1-.422-2.391c0-1.264-.14-1.686-.14-5.058a38.771 38.771 0 0 1 .14-5.058A6.516 6.516 0 0 1 2.81 5.2a5.046 5.046 0 0 1 .983-1.4A2.375 2.375 0 0 1 5.2 2.81a6.516 6.516 0 0 1 2.388-.421 38.771 38.771 0 0 1 5.058-.14m0-2.248a41.513 41.513 0 0 0-5.2.14A8.674 8.674 0 0 0 4.355.7a5.5 5.5 0 0 0-2.248 1.4A5.5 5.5 0 0 0 .7 4.355a6.4 6.4 0 0 0-.56 3.091 41.513 41.513 0 0 0-.14 5.2 41.513 41.513 0 0 0 .14 5.2 8.674 8.674 0 0 0 .56 3.088 5.5 5.5 0 0 0 1.4 2.248 5.5 5.5 0 0 0 2.248 1.4 8.674 8.674 0 0 0 3.091.562 41.513 41.513 0 0 0 5.2.14 41.513 41.513 0 0 0 5.2-.14 8.674 8.674 0 0 0 3.091-.562 5.895 5.895 0 0 0 3.653-3.653 8.674 8.674 0 0 0 .562-3.091c0-1.4.14-1.826.14-5.2a41.513 41.513 0 0 0-.14-5.2 8.674 8.674 0 0 0-.562-3.091 5.5 5.5 0 0 0-1.4-2.248A5.5 5.5 0 0 0 20.934.7a8.674 8.674 0 0 0-3.091-.56 41.512 41.512 0 0 0-5.2-.14m0 6.182a6.359 6.359 0 0 0-6.463 6.463 6.463 6.463 0 1 0 6.463-6.463m0 10.678a4.14 4.14 0 0 1-4.213-4.215 4.14 4.14 0 0 1 4.215-4.215 4.14 4.14 0 0 1 4.215 4.215 4.14 4.14 0 0 1-4.215 4.215m6.744-12.5a1.545 1.545 0 1 0 1.545 1.54 1.559 1.559 0 0 0-1.545-1.545" class="cls-1" data-name="Path 3"/>
    </g>
</svg>
