<svg xmlns="http://www.w3.org/2000/svg" viewBox="3382.707 -4444.839 25.289 20.512">
    <defs>
        <style>
            .cls-1{fill:#fff;fill-rule:evenodd}
        </style>
    </defs>
    <g id="Twitter" transform="translate(3382.707 -4444.839)">
        <path id="Path_2" d="M46.008 22.512A14.621 14.621 0 0 0 60.76 7.76v-.7a11.42 11.42 0 0 0 2.529-2.669 11.663 11.663 0 0 1-2.95.843 5.466 5.466 0 0 0 2.248-2.81 12.887 12.887 0 0 1-3.231 1.264A5.018 5.018 0 0 0 55.562 2a5.279 5.279 0 0 0-5.2 5.2 2.739 2.739 0 0 0 .14 1.124 14.526 14.526 0 0 1-10.676-5.481 5.38 5.38 0 0 0-.7 2.669 5.582 5.582 0 0 0 2.248 4.355 4.736 4.736 0 0 1-2.388-.7 5.135 5.135 0 0 0 4.214 5.056 4.331 4.331 0 0 1-1.4.14 2.391 2.391 0 0 1-.983-.14 5.323 5.323 0 0 0 4.917 3.653 10.608 10.608 0 0 1-6.463 2.248A3.89 3.89 0 0 1 38 19.983a13.261 13.261 0 0 0 8.008 2.529" class="cls-1" data-name="Path 2" transform="translate(-38 -2)"/>
    </g>
</svg>
