<svg xmlns="http://www.w3.org/2000/svg" viewBox="3523.377 -4448 25.289 25.289">
    <defs>
        <style>
            .cls-1{fill:#fff}
        </style>
    </defs>
    <g id="web" transform="translate(3523.378 -4448)">
        <path id="Path_4" d="M3.793 3.793A11.479 11.479 0 0 1 12.645 0 11.479 11.479 0 0 1 21.5 3.793a11.479 11.479 0 0 1 3.793 8.851A11.479 11.479 0 0 1 21.5 21.5a11.479 11.479 0 0 1-8.851 3.793A11.479 11.479 0 0 1 3.793 21.5 12.619 12.619 0 0 1 0 12.645a11.479 11.479 0 0 1 3.793-8.852zM14.331 22.76q1.264 0 3.161-1.9a9.2 9.2 0 0 0 1.475-4.426 3.49 3.49 0 0 0-1.054-2.529 3.71 3.71 0 0 0-2.74-1.264h-2.107a6.153 6.153 0 0 1-1.9-.421 1.913 1.913 0 0 1-.632-1.475 1.1 1.1 0 0 1 .421-.843 1.6 1.6 0 0 1 .843-.421 1.438 1.438 0 0 1 1.054.632c.421.211.632.421.843.421a1.267 1.267 0 0 0 .843-.211 1.267 1.267 0 0 0 .211-.843A3.354 3.354 0 0 0 13.7 7.376a8.717 8.717 0 0 0 1.054-4 .453.453 0 0 0-.421-.421 6.515 6.515 0 0 0-1.686-.421 10.542 10.542 0 0 0-5.482 1.681 5.306 5.306 0 0 0-1.9 4.215 5.4 5.4 0 0 0 1.686 4 5.758 5.758 0 0 0 4 1.686v.843a2.706 2.706 0 0 0 .849 2.111 3.069 3.069 0 0 0 1.9 1.264v3.793c0 .211 0 .211.211.421s.209.212.42.212z" class="cls-1" data-name="Path 4"/>
    </g>
</svg>
